<?xml version="1.0" encoding="iso-8859-1"?>
<!-- Generator: Adobe Illustrator 19.0.0, SVG Export Plug-In . SVG Version: 6.00 Build 0)  -->
<svg version="1.1" id="Capa_1" xmlns="http://www.w3.org/2000/svg" xmlns:xlink="http://www.w3.org/1999/xlink" x="0px" y="0px"
	 viewBox="0 0 499.901 499.901" style="enable-background:new 0 0 499.901 499.901;" xml:space="preserve">
<path style="fill:#FEDB41;" d="M283.1,359.75h-12.6v-52.1c0-11.7,9.5-21.2,21.2-21.2h177c11.7,0,21.2,9.5,21.2,21.2v52.1h-81.7
	v-18.1h-59.4v18.1H283.1z"/>
<path style="fill:#00ACEA;" d="M477.3,359.75v64.7c0,11.7-9.5,21.2-21.2,21.2H304.3c-11.7,0-21.2-9.5-21.2-21.2l0,0v-64.7h65.7v18.1
	h59.4v-18.1H477.3z"/>
<g>
	<path style="fill:#00EFD1;" d="M417.9,275.85v10.6h-78.6v-10.6c0-11.7,9.5-21.2,21.2-21.2l0,0h36.2c0.6,0,1.3,0,1.9,0.1
		C409.5,255.75,417.9,264.85,417.9,275.85z"/>
	<path style="fill:#00EFD1;" d="M398.6,54.25v200.4v0.1c-0.6-0.1-1.3-0.1-1.9-0.1h-36.2c-11.7,0-21.2,9.5-21.2,21.2l0,0v10.6h-29.7
		V54.25H398.6z"/>
</g>
<rect x="159.9" y="156.05" style="fill:#00ACEA;" width="89" height="190.1"/>
<rect x="10.1" y="225.85" style="fill:#00EFD1;" width="89" height="120.3"/>
<g>
	<path style="fill:#083863;" d="M259,155.95c0-5.5-4.5-10-10-10h-89c-5.5,0-10,4.5-10,10v190c0,5.5,4.5,10,10,10h89
		c5.5,0,10-4.5,10-10V155.95z M239,335.95h-69v-170h69V335.95z"/>
	<path style="fill:#083863;" d="M109,225.95c0-5.5-4.5-10-10-10H10c-5.5,0-10,4.5-10,10v120c0,5.5,4.5,10,10,10h89
		c5.5,0,10-4.5,10-10V225.95z M89,335.95H20v-100h69V335.95z"/>
	<path style="fill:#083863;" d="M468.7,275.95H428v-0.1c-0.1-12.5-7.5-23.8-19-28.8V54.25c-0.1-5.7-4.7-10.2-10.4-10.3h-89
		c-5.5,0-9.7,4.8-9.7,10.3v221.7h-8.3c-17.4,0.2-31.5,14.3-31.7,31.7v52.1c0,5.5,5,10.2,10.5,10.2h2.5v54.5
		c0,17.3,14,31.4,31.3,31.5H456c17.2,0,30.9-14.3,30.9-31.5v-54.5h2.9c5.6-0.1,10.1-4.6,10.1-10.2v-52.1
		C500,290.45,485.9,275.95,468.7,275.95z M349,275.95v-0.1c0-6.2,5.4-10.9,11.6-10.9h36.2c0.4-0.1,0.7-0.1,1.1-0.1
		c5.7,0.5,10.2,5.2,10.2,11v0.1H349z M320,63.95h69v181h-28.4c-17.2,0-31.6,13.7-31.6,30.9v0.1h-9V63.95z M280,307.65
		c0.2-6.4,5.3-11.5,11.7-11.7h177c6.2,0,11.3,5.5,11.3,11.7v42.3h-62v-8.3c0.1-5.3-4.2-9.7-9.5-9.7c-0.1,0-0.2,0-0.3,0h-59.4
		c-5.3-0.1-9.7,4.1-9.8,9.4c0,0.1,0,0.2,0,0.3v8.3h-59L280,307.65L280,307.65z M398,351.95v16h-39v-16H398z M467,424.45
		c0,6.2-4.8,11.5-10.9,11.5H304.3c-6.3-0.1-11.3-5.2-11.3-11.5v-54.5h46v7.9c-0.1,5.5,4.3,10,9.7,10.1l0,0h59.4
		c5.5-0.1,9.9-4.6,9.8-10.1l0,0v-7.9h49v54.5H467z"/>
</g>
<g>
</g>
<g>
</g>
<g>
</g>
<g>
</g>
<g>
</g>
<g>
</g>
<g>
</g>
<g>
</g>
<g>
</g>
<g>
</g>
<g>
</g>
<g>
</g>
<g>
</g>
<g>
</g>
<g>
</g>
</svg>
