<svg id="Layer_1" enable-background="new 0 0 512 512" height="512" viewBox="0 0 512 512" width="512" xmlns="http://www.w3.org/2000/svg"><g><path d="m375 504.5h-238c-14.359 0-26-11.641-26-26v-408c0-14.359 11.641-26 26-26h238c14.359 0 26 11.641 26 26v408c0 14.359-11.641 26-26 26z" fill="#78909c"/><path d="m375 44.5h-30c14.359 0 26 11.641 26 26v408c0 14.359-11.641 26-26 26h30c14.359 0 26-11.641 26-26v-408c0-14.359-11.641-26-26-26z" fill="#607d8b"/><path d="m141 470.5v-392c0-2.209 1.791-4 4-4h222c2.209 0 4 1.791 4 4v392c0 2.209-1.791 4-4 4h-222c-2.209 0-4-1.791-4-4z" fill="#ffd54f"/><path d="m367 74.5h-30c2.209 0 4 1.791 4 4v392c0 2.209-1.791 4-4 4h30c2.209 0 4-1.791 4-4v-392c0-2.209-1.791-4-4-4z" fill="#ffca28"/><path d="m303.419 44.443h-94.837v-20.943c0-8.837 7.163-16 16-16h62.837c8.837 0 16 7.163 16 16z" fill="#90a4ae"/><path d="m287.419 7.5h-30c8.837 0 16 7.163 16 16v20.943h30v-20.943c0-8.837-7.164-16-16-16z" fill="#78909c"/><g><path d="m326 302.34c0 55.781-31.34 83.66-70 83.66s-70-27.879-70-83.66 57.126-118.34 70-118.34 70 62.559 70 118.34z" fill="#64cc56"/><path d="m256 184c-3.011 0-8.444 3.424-15 9.382 21.473 19.514 55 66.225 55 108.958 0 48.349-23.551 75.72-55 82.159 4.834.99 9.849 1.501 15 1.501 38.66 0 70-27.879 70-83.66s-57.126-118.34-70-118.34z" fill="#5bbd4f"/></g><g><path d="m375 37h-22c-4.143 0-7.5 3.358-7.5 7.5s3.357 7.5 7.5 7.5h22c10.201 0 18.5 8.299 18.5 18.5v408c0 10.201-8.299 18.5-18.5 18.5h-238c-10.201 0-18.5-8.299-18.5-18.5v-350.115c0-4.142-3.358-7.5-7.5-7.5s-7.5 3.358-7.5 7.5v350.115c0 18.472 15.028 33.5 33.5 33.5h238c18.472 0 33.5-15.028 33.5-33.5v-408c0-18.472-15.028-33.5-33.5-33.5z"/><path d="m111 103.68c4.142 0 7.5-3.358 7.5-7.5v-25.68c0-10.201 8.299-18.5 18.5-18.5h183.077c4.143 0 7.5-3.358 7.5-7.5s-3.357-7.5-7.5-7.5h-9.158v-13.5c0-12.958-10.542-23.5-23.5-23.5h-62.838c-12.958 0-23.5 10.542-23.5 23.5v13.5h-64.081c-18.472 0-33.5 15.028-33.5 33.5v25.68c0 4.142 3.358 7.5 7.5 7.5zm105.081-80.18c0-4.687 3.813-8.5 8.5-8.5h62.838c4.687 0 8.5 3.813 8.5 8.5v13.443h-79.838z"/><path d="m371 423.68c4.143 0 7.5-3.358 7.5-7.5v-337.68c0-6.341-5.159-11.5-11.5-11.5h-222c-6.341 0-11.5 5.159-11.5 11.5v392c0 6.341 5.159 11.5 11.5 11.5h222c6.341 0 11.5-5.159 11.5-11.5v-22.32c0-4.142-3.357-7.5-7.5-7.5s-7.5 3.358-7.5 7.5v18.82h-215v-385h215v334.18c0 4.142 3.357 7.5 7.5 7.5z"/><path d="m256 425.5c4.143 0 7.5-3.358 7.5-7.5v-24.834c18.768-1.685 35.447-9.716 47.549-23.035 14.688-16.167 22.451-39.608 22.451-67.792 0-34.39-19.758-67.641-31.536-84.4-10.072-14.332-32.642-41.439-45.964-41.439s-35.891 27.106-45.964 41.44c-11.778 16.759-31.536 50.01-31.536 84.4 0 28.183 7.764 51.625 22.451 67.792 12.102 13.319 28.78 21.35 47.549 23.035v24.833c0 4.142 3.358 7.5 7.5 7.5zm-62.5-123.16c0-29.419 17.218-58.907 27.482-73.865 16.072-23.423 30.758-35.248 35.018-36.866 4.26 1.618 18.946 13.442 35.018 36.866 10.264 14.958 27.482 44.446 27.482 73.865 0 43.851-20.867 72.197-55 75.776v-30.163l30.433-24.62c3.221-2.605 3.72-7.328 1.114-10.548-2.605-3.22-7.328-3.719-10.548-1.114l-20.999 16.988v-35.235l23.194-18.451c3.242-2.579 3.779-7.297 1.2-10.538-2.578-3.242-7.298-3.779-10.538-1.2l-13.856 11.021v-33.256c0-4.142-3.357-7.5-7.5-7.5-4.142 0-7.5 3.358-7.5 7.5v33.256l-13.857-11.023c-3.24-2.578-7.96-2.04-10.538 1.201-2.579 3.241-2.042 7.959 1.2 10.539l23.195 18.451v35.235l-20.999-16.988c-3.22-2.604-7.942-2.106-10.548 1.114-2.605 3.22-2.106 7.943 1.114 10.548l30.433 24.62v30.163c-34.133-3.579-55-31.925-55-75.776z"/></g></g></svg>