<svg height="512" viewBox="0 0 512 512" width="512" xmlns="http://www.w3.org/2000/svg"><g id="Outline"><path d="m456 472h-56v-200a8 8 0 0 0 -8-8h-48a8 8 0 0 0 -8 8v200h-16v-256a8 8 0 0 0 -8-8h-48a8 8 0 0 0 -8 8v256h-16v-224a8 8 0 0 0 -8-8h-48a8 8 0 0 0 -8 8v224h-16v-120a8 8 0 0 0 -8-8h-48a8 8 0 0 0 -8 8v120h-40v-416h-16v32h-16v16h16v32h-16v16h16v32h-16v16h16v32h-16v16h16v32h-16v16h16v32h-16v16h16v32h-16v16h16v32h-16v16h16v40a8 8 0 0 0 8 8h408zm-104-192h32v192h-32zm-80-56h32v248h-32zm-80 32h32v216h-32zm-80 104h32v112h-32z"/><path d="m40 24h16v16h-16z"/><path d="m472 472h16v16h-16z"/><path d="m472 200c-47.017 0-80.5-31.481-112.882-61.925-30.368-28.552-61.769-58.075-103.118-58.075-29.289 0-52.992 12.67-72.465 38.734-16.162 21.634-26.8 49.114-36.183 73.359-8.2 21.178-15.941 41.182-25.009 50.25-21.105 21.1-41.541 21.645-42.4 21.657l.057 8v8c1.115 0 27.613-.3 53.657-26.343 11.456-11.457 19.408-32 28.616-55.789 18.482-47.748 39.427-101.868 93.727-101.868 35.008 0 62.769 26.1 92.159 53.732 33.041 31.062 70.485 66.268 123.841 66.268z"/><path d="m400 24h16v16h-16z"/><path d="m432 24h56v16h-56z"/><path d="m400 56h88v16h-88z"/></g></svg>