<svg height="512pt" viewBox="0 0 512 512" width="512pt" xmlns="http://www.w3.org/2000/svg" xmlns:xlink="http://www.w3.org/1999/xlink"><linearGradient id="a" gradientUnits="userSpaceOnUse" x1="0" x2="512" y1="256" y2="256"><stop offset="0" stop-color="#00f38d"/><stop offset="1" stop-color="#009eff"/></linearGradient><path d="m512 256c0 141.386719-114.613281 256-256 256s-256-114.613281-256-256 114.613281-256 256-256 256 114.613281 256 256zm0 0" fill="url(#a)"/><g fill="#fff"><path d="m312.542969 385.160156c0 6.265625-5.097657 11.359375-11.359375 11.359375h-158.816406c-6.261719 0-11.355469-5.09375-11.355469-11.359375v-258.320312c0-6.265625 5.09375-11.359375 11.355469-11.359375h158.816406c6.261718 0 11.359375 5.09375 11.359375 11.359375v54.539062h30v-54.539062c0-22.808594-18.554688-41.359375-41.359375-41.359375h-158.816406c-22.804688 0-41.355469 18.554687-41.355469 41.359375v258.320312c0 22.804688 18.550781 41.359375 41.355469 41.359375h158.816406c22.804687 0 41.359375-18.554687 41.359375-41.359375v-54.539062h-30zm0 0"/><path d="m378.285156 191.292969-21.214844 21.214843 28.492188 28.492188h-167.914062v30h167.917968l-28.496094 28.492188 21.214844 21.214843 64.703125-64.707031zm0 0"/></g></svg>