<?xml version="1.0" encoding="iso-8859-1"?>
<!-- Generator: Adobe Illustrator 19.0.0, SVG Export Plug-In . SVG Version: 6.00 Build 0)  -->
<svg version="1.1" id="Capa_1" xmlns="http://www.w3.org/2000/svg" xmlns:xlink="http://www.w3.org/1999/xlink" x="0px" y="0px"
	 viewBox="0 0 512 512" style="enable-background:new 0 0 512 512;" xml:space="preserve">
<path style="fill:#FFDA44;" d="M273.067,8.533v230.4h230.4C503.467,111.684,400.316,8.533,273.067,8.533z"/>
<path style="fill:#96C9EF;" d="M8.533,273.067c0,127.249,103.151,230.4,230.4,230.4s230.4-103.151,230.4-230.4h-230.4v-230.4
	C111.684,42.667,8.533,145.818,8.533,273.067z"/>
<g>
	<path style="fill:#231F20;" d="M469.333,264.533H247.467V42.667c0-4.71-3.823-8.533-8.533-8.533
		C106.974,34.133,0,141.107,0,273.067S106.974,512,238.933,512s238.933-106.974,238.933-238.933
		C477.867,268.356,474.044,264.533,469.333,264.533z M238.933,494.933C116.403,494.31,17.579,394.47,18.202,271.94
		C18.799,153.6,112.171,56.567,230.4,51.413v221.653c0,4.71,3.823,8.533,8.533,8.533h221.653
		C455.885,400.649,358.076,494.78,238.933,494.933z"/>
	<path style="fill:#231F20;" d="M273.067,0c-4.71,0-8.533,3.823-8.533,8.533v230.4c0,4.71,3.823,8.533,8.533,8.533h230.4
		c4.71,0,8.533-3.823,8.533-8.533C511.846,107.034,404.966,0.154,273.067,0z M281.6,17.28
		c115.746,4.591,208.529,97.374,213.12,213.12H281.6V17.28z"/>
</g>
<g>
</g>
<g>
</g>
<g>
</g>
<g>
</g>
<g>
</g>
<g>
</g>
<g>
</g>
<g>
</g>
<g>
</g>
<g>
</g>
<g>
</g>
<g>
</g>
<g>
</g>
<g>
</g>
<g>
</g>
</svg>
