<?xml version="1.0" encoding="iso-8859-1"?>
<!-- Generator: Adobe Illustrator 19.0.0, SVG Export Plug-In . SVG Version: 6.00 Build 0)  -->
<svg version="1.1" id="Layer_1" xmlns="http://www.w3.org/2000/svg" xmlns:xlink="http://www.w3.org/1999/xlink" x="0px" y="0px"
	 viewBox="0 0 512 512" style="enable-background:new 0 0 512 512;" xml:space="preserve">
<path style="fill:#5A6B96;" d="M11.253,36.571v438.857c0,13.983,11.336,25.319,25.319,25.319h438.857
	c13.983,0,25.319-11.336,25.319-25.319V120.404L391.596,11.253H36.571C22.589,11.253,11.253,22.589,11.253,36.571z"/>
<rect x="95.164" y="11.253" style="fill:#EFEFEF;" width="258.813" height="146.286"/>
<rect x="297.635" y="11.253" style="fill:#D1D5D8;" width="56.343" height="146.286"/>
<g>
	<rect x="88.897" y="256" style="fill:#EFEFEF;" width="334.207" height="59.077"/>
	<rect x="88.897" y="315.077" style="fill:#EFEFEF;" width="334.207" height="45.574"/>
	<polygon style="fill:#EFEFEF;" points="353.055,360.651 423.103,360.651 423.103,407.349 88.897,407.349 88.897,360.651 
		264.44,360.651 	"/>
	<rect x="88.897" y="407.349" style="fill:#EFEFEF;" width="334.207" height="46.699"/>
</g>
<rect x="88.897" y="454.048" style="fill:#FF7D46;" width="334.207" height="46.699"/>
<g>
	<path style="fill:#231F20;" d="M508.704,112.448L399.552,3.296C397.443,1.186,394.58,0,391.596,0H36.571
		C16.407,0,0,16.407,0,36.571v438.857C0,495.594,16.407,512,36.571,512h438.857C495.594,512,512,495.594,512,475.429V120.404
		C512,117.42,510.814,114.557,508.704,112.448z M342.729,22.505v123.78h-33.841V22.505H342.729z M286.382,22.505v123.78H106.422
		V22.505H286.382z M411.851,349.398h-58.796c-6.215,0-11.253,5.038-11.253,11.253s5.038,11.253,11.253,11.253h58.796v24.193H100.149
		v-24.193h164.29c6.215,0,11.253-5.038,11.253-11.253s-5.038-11.253-11.253-11.253h-164.29V326.33h311.701V349.398z
		 M100.149,418.602h311.701v24.193H100.149V418.602z M411.851,303.824H100.149v-36.571h311.701V303.824z M100.149,489.495v-24.193
		h311.701v24.193H100.149z M489.495,475.429c0,7.757-6.309,14.066-14.066,14.066h-41.073V256c0-6.215-5.038-11.253-11.253-11.253
		H88.897c-6.215,0-11.253,5.038-11.253,11.253v233.495H36.571c-7.757,0-14.066-6.309-14.066-14.066V36.571
		c0-7.757,6.309-14.066,14.066-14.066h47.345v135.033c0,6.215,5.038,11.253,11.253,11.253h258.813
		c6.215,0,11.253-5.038,11.253-11.253V22.505h21.7l102.56,102.56V475.429z"/>
	<path style="fill:#231F20;" d="M307.2,371.903h1.125c6.215,0,11.253-5.038,11.253-11.253s-5.038-11.253-11.253-11.253H307.2
		c-6.215,0-11.253,5.038-11.253,11.253S300.985,371.903,307.2,371.903z"/>
</g>
<g>
</g>
<g>
</g>
<g>
</g>
<g>
</g>
<g>
</g>
<g>
</g>
<g>
</g>
<g>
</g>
<g>
</g>
<g>
</g>
<g>
</g>
<g>
</g>
<g>
</g>
<g>
</g>
<g>
</g>
</svg>
