<?xml version="1.0" encoding="iso-8859-1"?>
<!-- Generator: Adobe Illustrator 19.0.0, SVG Export Plug-In . SVG Version: 6.00 Build 0)  -->
<svg version="1.1" id="Capa_1" xmlns="http://www.w3.org/2000/svg" xmlns:xlink="http://www.w3.org/1999/xlink" x="0px" y="0px"
	 viewBox="0 0 512 512" style="enable-background:new 0 0 512 512;" xml:space="preserve">
<circle style="fill:#38C96C;" cx="172.77" cy="314.76" r="165.28"/>
<path style="fill:#2BAA55;" d="M338.054,314.761c0,91.287-74.001,165.288-165.278,165.288c-79.323,0-145.594-55.875-161.603-130.415
	c30.329,36.221,75.878,59.26,126.8,59.26c91.287,0,165.288-74.001,165.288-165.288c0-11.954-1.268-23.618-3.685-34.853
	C323.603,237.445,338.054,274.415,338.054,314.761z"/>
<circle style="fill:#FFE1A0;" cx="366.85" cy="313.27" r="137.66"/>
<path style="fill:#EFCC86;" d="M504.51,313.273c0,76.018-61.627,137.655-137.655,137.655c-64.284,0-118.271-44.061-133.411-103.621
	c25.246,29.49,62.746,48.185,104.61,48.185c76.028,0,137.665-61.627,137.665-137.655c0-11.744-1.468-23.139-4.244-34.024
	C492.077,247.871,504.51,279.119,504.51,313.273z"/>
<circle style="fill:#F16645;" cx="285.91" cy="128.17" r="96.22"/>
<path style="fill:#EB5836;" d="M382.124,128.172c0,53.139-43.072,96.211-96.211,96.211c-47.886,0-87.612-34.983-94.982-80.792
	c17.636,20.243,43.601,33.036,72.563,33.036c53.139,0,96.221-43.072,96.221-96.211c0-5.253-0.419-10.396-1.238-15.419
	C373.206,81.904,382.124,104.004,382.124,128.172z"/>
<path d="M471.277,212.455c-24.098-24.956-55.77-40.238-89.971-43.613c5.348-12.495,8.313-26.243,8.313-40.671
	c0-57.184-46.522-103.707-103.707-103.707c-57.184,0-103.706,46.522-103.706,103.707c0,4.796,0.335,9.515,0.968,14.14
	c-3.462-0.205-6.938-0.322-10.4-0.322c-11.564,0-23.128,1.151-34.37,3.42c-4.055,0.818-6.679,4.769-5.86,8.824
	c0.717,3.555,3.842,6.01,7.334,6.01c0.491,0,0.99-0.049,1.49-0.15c14.701-2.967,30.095-3.797,45.092-2.511
	c9.396,31.718,33.583,57.141,64.537,68.242c-19.173,25.332-29.29,55.491-29.29,87.445c0,47.772,23.035,90.292,58.82,116.773
	c-29.312,27.478-67.257,42.515-107.752,42.515c-87.008,0-157.794-70.786-157.794-157.794c0-56.436,30.457-108.941,79.484-137.024
	c3.589-2.056,4.833-6.632,2.777-10.222s-6.633-4.833-10.222-2.777C33.343,195.486,0,252.97,0,314.762
	c0,95.268,77.506,172.774,172.774,172.774c45.537,0,88.123-17.37,120.554-49.022c19.553,11.483,42.079,18.526,66.242,19.721
	c0.126,0.006,0.252,0.009,0.376,0.009c3.966,0,7.276-3.114,7.474-7.12c0.204-4.132-2.979-7.646-7.111-7.851
	c-69.322-3.429-123.624-60.534-123.624-130.006c0-29.667,9.72-57.608,28.108-80.801c0.631-0.796,1.277-1.589,1.932-2.376
	c6.22,1.168,12.632,1.786,19.186,1.786c36.945,0,69.434-19.422,87.808-48.589c69.297,3.581,123.301,60.3,123.301,129.98
	c0,54.359-34.266,103.474-85.265,122.217c-0.743,0.273-1.49,0.54-2.239,0.8c-3.908,1.357-5.976,5.624-4.62,9.532
	c1.074,3.095,3.974,5.036,7.075,5.036c0.815,0,1.643-0.134,2.456-0.416c0.835-0.29,1.667-0.587,2.495-0.891
	c27.608-10.146,51.241-28.237,68.344-52.318C502.756,372.604,512,343.571,512,313.268C512,275.453,497.537,239.65,471.277,212.455z
	 M285.912,216.897c-48.924,0-88.727-39.803-88.727-88.727s39.803-88.727,88.727-88.727s88.727,39.803,88.727,88.727
	S334.836,216.897,285.912,216.897z"/>
<g>
</g>
<g>
</g>
<g>
</g>
<g>
</g>
<g>
</g>
<g>
</g>
<g>
</g>
<g>
</g>
<g>
</g>
<g>
</g>
<g>
</g>
<g>
</g>
<g>
</g>
<g>
</g>
<g>
</g>
</svg>
